<?xml version="1.0" encoding="UTF-8"?>
<svg id="Layer_2" data-name="Layer 2" xmlns="http://www.w3.org/2000/svg" viewBox="0 0 7.86 14.85">
  <defs>
    <style>
      .cls-1 {
        fill: #ff0;
        stroke: #000;
        stroke-miterlimit: 10;
        stroke-width: .5px;
      }
    </style>
  </defs>
  <g id="Layer_1-2" data-name="Layer 1">
    <path class="cls-1" d="m2.79,10.95c0-.79.09-1.47.28-2.04s.42-1.06.7-1.48.56-.81.83-1.17.51-.72.7-1.1.28-.8.28-1.27h0c0-.58-.15-1.02-.43-1.33s-.69-.47-1.22-.47-.94.19-1.23.58-.44.94-.44,1.65h0s-2.02,0-2.02,0H.25c.05-1.31.39-2.31,1.03-3.02S2.8.25,3.92.25s2.08.32,2.72.95.97,1.53.97,2.69h0c0,.52-.07.98-.21,1.36s-.31.74-.53,1.05-.44.62-.68.92-.47.62-.68.97-.39.74-.53,1.18-.21.97-.21,1.58h-1.99Zm-.05,3.64v-2.09h2.09v2.09h-2.09Z"/>
  </g>
</svg>